<svg xmlns="http://www.w3.org/2000/svg" width="1200" height="630" viewBox="0 0 1200 630" role="img" aria-labelledby="title desc">
  <title id="title">SmoothTwinkVibes official 18+ Stripchat follow page</title>
  <desc id="desc">Dark premium creator landing page preview for the official SmoothTwinkVibes Stripchat follow link.</desc>
  <defs>
    <linearGradient id="bg" x1="0" y1="0" x2="1" y2="1">
      <stop offset="0" stop-color="#07070a"/>
      <stop offset="0.52" stop-color="#190b18"/>
      <stop offset="1" stop-color="#07070a"/>
    </linearGradient>
    <linearGradient id="cta" x1="0" y1="0" x2="1" y2="1">
      <stop offset="0" stop-color="#ff6f9c"/>
      <stop offset="1" stop-color="#ffd166"/>
    </linearGradient>
  </defs>
  <rect width="1200" height="630" fill="url(#bg)"/>
  <path d="M0 106H1200M0 212H1200M0 318H1200M0 424H1200M0 530H1200" stroke="#ffffff" stroke-opacity="0.06"/>
  <path d="M106 0V630M318 0V630M530 0V630M742 0V630M954 0V630" stroke="#ffffff" stroke-opacity="0.045"/>
  <path d="M0 0H1200V630H0Z" fill="#ff6f9c" opacity="0.08"/>
  <path d="M830 0H1200V630H690Z" fill="#8ee7ff" opacity="0.06"/>
  <text x="82" y="110" fill="#f4d6df" font-size="30" font-weight="700" font-family="Space Grotesk, Segoe UI, sans-serif">OFFICIAL SMOOTHTWINKVIBES FOLLOW LINK · 18+ ONLY</text>
  <text x="82" y="250" fill="#fff7fb" font-size="86" font-family="Georgia, Times New Roman, serif">Late Night Looks Better</text>
  <text x="82" y="342" fill="#fff7fb" font-size="86" font-family="Georgia, Times New Roman, serif">When You Know</text>
  <text x="82" y="434" fill="#fff7fb" font-size="86" font-family="Georgia, Times New Roman, serif">Where to Find Me.</text>
  <text x="82" y="500" fill="#c8b8c1" font-size="31" font-family="Space Grotesk, Segoe UI, sans-serif">Tap through, save the profile, and catch the live vibe on Stripchat.</text>
  <g transform="translate(82 536)">
    <rect width="360" height="64" rx="8" fill="url(#cta)"/>
    <text x="180" y="41" text-anchor="middle" fill="#17070d" font-size="24" font-weight="800" font-family="Space Grotesk, Segoe UI, sans-serif">Follow Me on Stripchat</text>
  </g>
</svg>
