<svg xmlns="http://www.w3.org/2000/svg" width="1200" height="630" viewBox="0 0 1200 630" role="img" aria-labelledby="title desc">
  <title id="title">New Here? Meet SmoothTwinkVibes Live.</title>
  <desc id="desc">A dark editorial preview image for new adult visitors with a direct follow link message.</desc>
  <defs>
    <linearGradient id="bg" x1="0%" y1="0%" x2="100%" y2="100%">
      <stop offset="0%" stop-color="#090b11"/>
      <stop offset="50%" stop-color="#101626"/>
      <stop offset="100%" stop-color="#07080d"/>
    </linearGradient>
    <radialGradient id="warm" cx="18%" cy="12%" r="48%">
      <stop offset="0%" stop-color="#ff6f5d" stop-opacity="0.42"/>
      <stop offset="100%" stop-color="#ff6f5d" stop-opacity="0"/>
    </radialGradient>
    <radialGradient id="cool" cx="78%" cy="22%" r="38%">
      <stop offset="0%" stop-color="#5c94ff" stop-opacity="0.28"/>
      <stop offset="100%" stop-color="#5c94ff" stop-opacity="0"/>
    </radialGradient>
    <filter id="soft" x="-20%" y="-20%" width="140%" height="140%">
      <feGaussianBlur stdDeviation="36"/>
    </filter>
  </defs>
  <rect width="1200" height="630" fill="url(#bg)"/>
  <rect width="1200" height="630" fill="url(#warm)"/>
  <rect width="1200" height="630" fill="url(#cool)"/>
  <g opacity="0.16">
    <path d="M0 92H1200M0 182H1200M0 272H1200M0 362H1200M0 452H1200M0 542H1200" stroke="#ffffff"/>
    <path d="M88 0V630M268 0V630M448 0V630M628 0V630M808 0V630M988 0V630M1168 0V630" stroke="#ffffff"/>
  </g>
  <ellipse cx="960" cy="480" rx="180" ry="90" fill="#ff6f5d" opacity="0.22" filter="url(#soft)"/>
  <g fill="#f6f2eb">
    <text x="92" y="132" font-size="28" font-family="Aptos, Segoe UI, sans-serif" letter-spacing="5.6" text-transform="uppercase">NEW VISITORS WELCOME · 18+ ONLY · DIRECT FOLLOW LINK</text>
    <text x="92" y="264" font-size="82" font-family="Georgia, Times New Roman, serif" font-weight="700">New Here?</text>
    <text x="92" y="354" font-size="82" font-family="Georgia, Times New Roman, serif" font-weight="700">Meet SmoothTwinkVibes Live.</text>
    <text x="92" y="442" font-size="31" font-family="Aptos, Segoe UI, sans-serif" fill="#b5bfcd">A simple first-stop page for adults who want the official Stripchat follow link.</text>
  </g>
  <g transform="translate(92 492)">
    <rect width="404" height="78" rx="39" fill="#ff7a5c"/>
    <text x="202" y="49" text-anchor="middle" font-size="26" font-weight="700" font-family="Aptos, Segoe UI, sans-serif" fill="#170b08">Open the Direct Follow Link</text>
  </g>
</svg>
